<svg xmlns="http://www.w3.org/2000/svg" viewBox="0 0 1440 660" width="1440" height="660"><rect width="100%" height="100%" fill="white"/><text x="36" y="47" font-family="'Malgun Gothic','Noto Sans KR',sans-serif" font-size="28" font-weight="700" fill="#6b50cc" text-anchor="start">한 토큰을 생성할 때: 행렬의 어느 축을 읽나</text><text x="48" y="100" font-family="'Malgun Gothic','Noto Sans KR',sans-serif" font-size="19" font-weight="700" fill="#6b50cc" text-anchor="start">현재 토큰의 query</text><rect x="54" y="136" width="34" height="42" rx="2" fill="#6b50cc" stroke="white" stroke-width="1"/><rect x="90" y="136" width="34" height="42" rx="2" fill="#e8e3f8" stroke="white" stroke-width="1"/><rect x="126" y="136" width="34" height="42" rx="2" fill="#6b50cc" stroke="white" stroke-width="1"/><rect x="162" y="136" width="34" height="42" rx="2" fill="#e8e3f8" stroke="white" stroke-width="1"/><text x="122" y="224" font-family="'Malgun Gothic','Noto Sans KR',sans-serif" font-size="18" font-weight="400" fill="#68728a" text-anchor="middle">q : 1 × dₕ</text><text x="222" y="171" font-family="'Malgun Gothic','Noto Sans KR',sans-serif" font-size="28" font-weight="400" fill="#31394c" text-anchor="start">×</text><rect x="276" y="112" width="32" height="42" rx="2" fill="#c44898" stroke="white" stroke-width="1"/><rect x="310" y="112" width="32" height="42" rx="2" fill="#f7e7f1" stroke="white" stroke-width="1"/><rect x="344" y="112" width="32" height="42" rx="2" fill="#f7e7f1" stroke="white" stroke-width="1"/><rect x="378" y="112" width="32" height="42" rx="2" fill="#f7e7f1" stroke="white" stroke-width="1"/><rect x="412" y="112" width="32" height="42" rx="2" fill="#f7e7f1" stroke="white" stroke-width="1"/><rect x="446" y="112" width="32" height="42" rx="2" fill="#f7e7f1" stroke="white" stroke-width="1"/><rect x="480" y="112" width="32" height="42" rx="2" fill="#f7e7f1" stroke="white" stroke-width="1"/><rect x="514" y="112" width="32" height="42" rx="2" fill="#f7e7f1" stroke="white" stroke-width="1"/><rect x="548" y="112" width="32" height="42" rx="2" fill="#f7e7f1" stroke="white" stroke-width="1"/><rect x="582" y="112" width="32" height="42" rx="2" fill="#f7e7f1" stroke="white" stroke-width="1"/><rect x="616" y="112" width="32" height="42" rx="2" fill="#f7e7f1" stroke="white" stroke-width="1"/><rect x="650" y="112" width="32" height="42" rx="2" fill="#f7e7f1" stroke="white" stroke-width="1"/><rect x="276" y="156" width="32" height="42" rx="2" fill="#f7e7f1" stroke="white" stroke-width="1"/><rect x="310" y="156" width="32" height="42" rx="2" fill="#f7e7f1" stroke="white" stroke-width="1"/><rect x="344" y="156" width="32" height="42" rx="2" fill="#c44898" stroke="white" stroke-width="1"/><rect x="378" y="156" width="32" height="42" rx="2" fill="#f7e7f1" stroke="white" stroke-width="1"/><rect x="412" y="156" width="32" height="42" rx="2" fill="#f7e7f1" stroke="white" stroke-width="1"/><rect x="446" y="156" width="32" height="42" rx="2" fill="#f7e7f1" stroke="white" stroke-width="1"/><rect x="480" y="156" width="32" height="42" rx="2" fill="#f7e7f1" stroke="white" stroke-width="1"/><rect x="514" y="156" width="32" height="42" rx="2" fill="#f7e7f1" stroke="white" stroke-width="1"/><rect x="548" y="156" width="32" height="42" rx="2" fill="#f7e7f1" stroke="white" stroke-width="1"/><rect x="582" y="156" width="32" height="42" rx="2" fill="#f7e7f1" stroke="white" stroke-width="1"/><rect x="616" y="156" width="32" height="42" rx="2" fill="#f7e7f1" stroke="white" stroke-width="1"/><rect x="650" y="156" width="32" height="42" rx="2" fill="#f7e7f1" stroke="white" stroke-width="1"/><rect x="276" y="200" width="32" height="42" rx="2" fill="#f7e7f1" stroke="white" stroke-width="1"/><rect x="310" y="200" width="32" height="42" rx="2" fill="#f7e7f1" stroke="white" stroke-width="1"/><rect x="344" y="200" width="32" height="42" rx="2" fill="#f7e7f1" stroke="white" stroke-width="1"/><rect x="378" y="200" width="32" height="42" rx="2" fill="#f7e7f1" stroke="white" stroke-width="1"/><rect x="412" y="200" width="32" height="42" rx="2" fill="#f7e7f1" stroke="white" stroke-width="1"/><rect x="446" y="200" width="32" height="42" rx="2" fill="#f7e7f1" stroke="white" stroke-width="1"/><rect x="480" y="200" width="32" height="42" rx="2" fill="#f7e7f1" stroke="white" stroke-width="1"/><rect x="514" y="200" width="32" height="42" rx="2" fill="#c44898" stroke="white" stroke-width="1"/><rect x="548" y="200" width="32" height="42" rx="2" fill="#f7e7f1" stroke="white" stroke-width="1"/><rect x="582" y="200" width="32" height="42" rx="2" fill="#f7e7f1" stroke="white" stroke-width="1"/><rect x="616" y="200" width="32" height="42" rx="2" fill="#f7e7f1" stroke="white" stroke-width="1"/><rect x="650" y="200" width="32" height="42" rx="2" fill="#f7e7f1" stroke="white" stroke-width="1"/><rect x="276" y="244" width="32" height="42" rx="2" fill="#f7e7f1" stroke="white" stroke-width="1"/><rect x="310" y="244" width="32" height="42" rx="2" fill="#f7e7f1" stroke="white" stroke-width="1"/><rect x="344" y="244" width="32" height="42" rx="2" fill="#f7e7f1" stroke="white" stroke-width="1"/><rect x="378" y="244" width="32" height="42" rx="2" fill="#f7e7f1" stroke="white" stroke-width="1"/><rect x="412" y="244" width="32" height="42" rx="2" fill="#f7e7f1" stroke="white" stroke-width="1"/><rect x="446" y="244" width="32" height="42" rx="2" fill="#f7e7f1" stroke="white" stroke-width="1"/><rect x="480" y="244" width="32" height="42" rx="2" fill="#f7e7f1" stroke="white" stroke-width="1"/><rect x="514" y="244" width="32" height="42" rx="2" fill="#f7e7f1" stroke="white" stroke-width="1"/><rect x="548" y="244" width="32" height="42" rx="2" fill="#f7e7f1" stroke="white" stroke-width="1"/><rect x="582" y="244" width="32" height="42" rx="2" fill="#f7e7f1" stroke="white" stroke-width="1"/><rect x="616" y="244" width="32" height="42" rx="2" fill="#c44898" stroke="white" stroke-width="1"/><rect x="650" y="244" width="32" height="42" rx="2" fill="#f7e7f1" stroke="white" stroke-width="1"/><text x="510" y="314" font-family="'Malgun Gothic','Noto Sans KR',sans-serif" font-size="18" font-weight="400" fill="#68728a" text-anchor="middle">Kᵀ : dₕ × S</text><text x="727" y="171" font-family="'Malgun Gothic','Noto Sans KR',sans-serif" font-size="28" font-weight="400" fill="#31394c" text-anchor="start">=</text><rect x="777" y="136" width="32" height="42" rx="2" fill="#6b50cc" stroke="white" stroke-width="1"/><rect x="811" y="136" width="32" height="42" rx="2" fill="#e8e3f8" stroke="white" stroke-width="1"/><rect x="845" y="136" width="32" height="42" rx="2" fill="#6b50cc" stroke="white" stroke-width="1"/><rect x="879" y="136" width="32" height="42" rx="2" fill="#e8e3f8" stroke="white" stroke-width="1"/><rect x="913" y="136" width="32" height="42" rx="2" fill="#e8e3f8" stroke="white" stroke-width="1"/><rect x="947" y="136" width="32" height="42" rx="2" fill="#e8e3f8" stroke="white" stroke-width="1"/><rect x="981" y="136" width="32" height="42" rx="2" fill="#e8e3f8" stroke="white" stroke-width="1"/><rect x="1015" y="136" width="32" height="42" rx="2" fill="#6b50cc" stroke="white" stroke-width="1"/><rect x="1049" y="136" width="32" height="42" rx="2" fill="#e8e3f8" stroke="white" stroke-width="1"/><rect x="1083" y="136" width="32" height="42" rx="2" fill="#e8e3f8" stroke="white" stroke-width="1"/><rect x="1117" y="136" width="32" height="42" rx="2" fill="#6b50cc" stroke="white" stroke-width="1"/><rect x="1151" y="136" width="32" height="42" rx="2" fill="#e8e3f8" stroke="white" stroke-width="1"/><text x="999" y="224" font-family="'Malgun Gothic','Noto Sans KR',sans-serif" font-size="18" font-weight="400" fill="#68728a" text-anchor="middle">score : 1 × S</text><text x="840" y="267" font-family="'Malgun Gothic','Noto Sans KR',sans-serif" font-size="17" font-weight="400" fill="#68728a" text-anchor="start">mask + softmax ↓  (모양은 1 × S 그대로)</text><text x="52" y="385" font-family="'Malgun Gothic','Noto Sans KR',sans-serif" font-size="19" font-weight="700" fill="#4b9b62" text-anchor="start">같은 S개 위치의 value를 가중합</text><rect x="54" y="425" width="32" height="42" rx="2" fill="#6b50cc" stroke="white" stroke-width="1"/><rect x="88" y="425" width="32" height="42" rx="2" fill="#e8e3f8" stroke="white" stroke-width="1"/><rect x="122" y="425" width="32" height="42" rx="2" fill="#6b50cc" stroke="white" stroke-width="1"/><rect x="156" y="425" width="32" height="42" rx="2" fill="#e8e3f8" stroke="white" stroke-width="1"/><rect x="190" y="425" width="32" height="42" rx="2" fill="#e8e3f8" stroke="white" stroke-width="1"/><rect x="224" y="425" width="32" height="42" rx="2" fill="#e8e3f8" stroke="white" stroke-width="1"/><rect x="258" y="425" width="32" height="42" rx="2" fill="#e8e3f8" stroke="white" stroke-width="1"/><rect x="292" y="425" width="32" height="42" rx="2" fill="#6b50cc" stroke="white" stroke-width="1"/><rect x="326" y="425" width="32" height="42" rx="2" fill="#e8e3f8" stroke="white" stroke-width="1"/><rect x="360" y="425" width="32" height="42" rx="2" fill="#e8e3f8" stroke="white" stroke-width="1"/><rect x="394" y="425" width="32" height="42" rx="2" fill="#6b50cc" stroke="white" stroke-width="1"/><rect x="428" y="425" width="32" height="42" rx="2" fill="#e8e3f8" stroke="white" stroke-width="1"/><text x="255" y="495" font-family="'Malgun Gothic','Noto Sans KR',sans-serif" font-size="18" font-weight="400" fill="#68728a" text-anchor="middle">p : 1 × S</text><text x="482" y="455" font-family="'Malgun Gothic','Noto Sans KR',sans-serif" font-size="28" font-weight="400" fill="#31394c" text-anchor="start">×</text><rect x="532" y="389" width="34" height="12" rx="2" fill="#4b9b62" stroke="white" stroke-width="1"/><rect x="568" y="389" width="34" height="12" rx="2" fill="#e5f1e8" stroke="white" stroke-width="1"/><rect x="604" y="389" width="34" height="12" rx="2" fill="#e5f1e8" stroke="white" stroke-width="1"/><rect x="640" y="389" width="34" height="12" rx="2" fill="#e5f1e8" stroke="white" stroke-width="1"/><rect x="532" y="403" width="34" height="12" rx="2" fill="#e5f1e8" stroke="white" stroke-width="1"/><rect x="568" y="403" width="34" height="12" rx="2" fill="#e5f1e8" stroke="white" stroke-width="1"/><rect x="604" y="403" width="34" height="12" rx="2" fill="#e5f1e8" stroke="white" stroke-width="1"/><rect x="640" y="403" width="34" height="12" rx="2" fill="#e5f1e8" stroke="white" stroke-width="1"/><rect x="532" y="417" width="34" height="12" rx="2" fill="#e5f1e8" stroke="white" stroke-width="1"/><rect x="568" y="417" width="34" height="12" rx="2" fill="#4b9b62" stroke="white" stroke-width="1"/><rect x="604" y="417" width="34" height="12" rx="2" fill="#e5f1e8" stroke="white" stroke-width="1"/><rect x="640" y="417" width="34" height="12" rx="2" fill="#e5f1e8" stroke="white" stroke-width="1"/><rect x="532" y="431" width="34" height="12" rx="2" fill="#e5f1e8" stroke="white" stroke-width="1"/><rect x="568" y="431" width="34" height="12" rx="2" fill="#e5f1e8" stroke="white" stroke-width="1"/><rect x="604" y="431" width="34" height="12" rx="2" fill="#e5f1e8" stroke="white" stroke-width="1"/><rect x="640" y="431" width="34" height="12" rx="2" fill="#e5f1e8" stroke="white" stroke-width="1"/><rect x="532" y="445" width="34" height="12" rx="2" fill="#e5f1e8" stroke="white" stroke-width="1"/><rect x="568" y="445" width="34" height="12" rx="2" fill="#e5f1e8" stroke="white" stroke-width="1"/><rect x="604" y="445" width="34" height="12" rx="2" fill="#e5f1e8" stroke="white" stroke-width="1"/><rect x="640" y="445" width="34" height="12" rx="2" fill="#e5f1e8" stroke="white" stroke-width="1"/><rect x="532" y="459" width="34" height="12" rx="2" fill="#e5f1e8" stroke="white" stroke-width="1"/><rect x="568" y="459" width="34" height="12" rx="2" fill="#e5f1e8" stroke="white" stroke-width="1"/><rect x="604" y="459" width="34" height="12" rx="2" fill="#e5f1e8" stroke="white" stroke-width="1"/><rect x="640" y="459" width="34" height="12" rx="2" fill="#e5f1e8" stroke="white" stroke-width="1"/><rect x="532" y="473" width="34" height="12" rx="2" fill="#e5f1e8" stroke="white" stroke-width="1"/><rect x="568" y="473" width="34" height="12" rx="2" fill="#e5f1e8" stroke="white" stroke-width="1"/><rect x="604" y="473" width="34" height="12" rx="2" fill="#e5f1e8" stroke="white" stroke-width="1"/><rect x="640" y="473" width="34" height="12" rx="2" fill="#e5f1e8" stroke="white" stroke-width="1"/><rect x="532" y="487" width="34" height="12" rx="2" fill="#e5f1e8" stroke="white" stroke-width="1"/><rect x="568" y="487" width="34" height="12" rx="2" fill="#e5f1e8" stroke="white" stroke-width="1"/><rect x="604" y="487" width="34" height="12" rx="2" fill="#4b9b62" stroke="white" stroke-width="1"/><rect x="640" y="487" width="34" height="12" rx="2" fill="#e5f1e8" stroke="white" stroke-width="1"/><rect x="532" y="501" width="34" height="12" rx="2" fill="#e5f1e8" stroke="white" stroke-width="1"/><rect x="568" y="501" width="34" height="12" rx="2" fill="#e5f1e8" stroke="white" stroke-width="1"/><rect x="604" y="501" width="34" height="12" rx="2" fill="#e5f1e8" stroke="white" stroke-width="1"/><rect x="640" y="501" width="34" height="12" rx="2" fill="#e5f1e8" stroke="white" stroke-width="1"/><rect x="532" y="515" width="34" height="12" rx="2" fill="#e5f1e8" stroke="white" stroke-width="1"/><rect x="568" y="515" width="34" height="12" rx="2" fill="#e5f1e8" stroke="white" stroke-width="1"/><rect x="604" y="515" width="34" height="12" rx="2" fill="#e5f1e8" stroke="white" stroke-width="1"/><rect x="640" y="515" width="34" height="12" rx="2" fill="#e5f1e8" stroke="white" stroke-width="1"/><rect x="532" y="529" width="34" height="12" rx="2" fill="#e5f1e8" stroke="white" stroke-width="1"/><rect x="568" y="529" width="34" height="12" rx="2" fill="#e5f1e8" stroke="white" stroke-width="1"/><rect x="604" y="529" width="34" height="12" rx="2" fill="#e5f1e8" stroke="white" stroke-width="1"/><rect x="640" y="529" width="34" height="12" rx="2" fill="#4b9b62" stroke="white" stroke-width="1"/><rect x="532" y="543" width="34" height="12" rx="2" fill="#e5f1e8" stroke="white" stroke-width="1"/><rect x="568" y="543" width="34" height="12" rx="2" fill="#e5f1e8" stroke="white" stroke-width="1"/><rect x="604" y="543" width="34" height="12" rx="2" fill="#e5f1e8" stroke="white" stroke-width="1"/><rect x="640" y="543" width="34" height="12" rx="2" fill="#e5f1e8" stroke="white" stroke-width="1"/><text x="726" y="455" font-family="'Malgun Gothic','Noto Sans KR',sans-serif" font-size="28" font-weight="400" fill="#31394c" text-anchor="start">=</text><rect x="775" y="425" width="34" height="42" rx="2" fill="#4b9b62" stroke="white" stroke-width="1"/><rect x="811" y="425" width="34" height="42" rx="2" fill="#e5f1e8" stroke="white" stroke-width="1"/><rect x="847" y="425" width="34" height="42" rx="2" fill="#4b9b62" stroke="white" stroke-width="1"/><rect x="883" y="425" width="34" height="42" rx="2" fill="#e5f1e8" stroke="white" stroke-width="1"/><text x="852" y="510" font-family="'Malgun Gothic','Noto Sans KR',sans-serif" font-size="18" font-weight="400" fill="#68728a" text-anchor="middle">out : 1 × dₕ</text><text x="1010" y="414" font-family="'Malgun Gothic','Noto Sans KR',sans-serif" font-size="19" font-weight="400" fill="#31394c" text-anchor="start">K와 V의 12칸은</text><text x="1010" y="447" font-family="'Malgun Gothic','Noto Sans KR',sans-serif" font-size="18" font-weight="400" fill="#68728a" text-anchor="start">과거 토큰 S개를 뜻하는 예시</text><text x="1010" y="481" font-family="'Malgun Gothic','Noto Sans KR',sans-serif" font-size="18" font-weight="400" fill="#68728a" text-anchor="start">실제 크기는 S에 따라 증가</text><rect x="36" y="567" width="1368" height="48" rx="8" fill="#f7f8fc" stroke="#d8dce8" stroke-width="1"/><text x="56" y="598" font-family="'Malgun Gothic','Noto Sans KR',sans-serif" font-size="17" font-weight="400" fill="#68728a" text-anchor="start">그림은 head 하나의 decode 연산이다. prefill의 Q는 1행이 아니라 여러 행이다.</text></svg>