<svg xmlns="http://www.w3.org/2000/svg" viewBox="0 0 1440 700" width="1440" height="700"><rect width="100%" height="100%" fill="white"/><text x="36" y="47" font-family="'Malgun Gothic','Noto Sans KR',sans-serif" font-size="28" font-weight="700" fill="#6b50cc" text-anchor="start">CSA와 HCA: 같은 원본 위치를 서로 다른 비율로 압축</text><text x="46" y="94" font-family="'Malgun Gothic','Noto Sans KR',sans-serif" font-size="23" font-weight="700" fill="#d5962b" text-anchor="start">CSA</text><text x="150" y="94" font-family="'Malgun Gothic','Noto Sans KR',sans-serif" font-size="18" font-weight="400" fill="#68728a" text-anchor="start">4 token → 1 compressed KV</text><rect x="56" y="112" width="116" height="40" rx="4" fill="#edf0f6" stroke="#d8dce8" stroke-width="1.5"/><text x="114" y="138" font-family="'Malgun Gothic','Noto Sans KR',sans-serif" font-size="14" font-weight="400" fill="#68728a" text-anchor="middle">원본 0…3</text><line x1="114" y1="155" x2="114" y2="189" stroke="#68728a" stroke-width="2.5"/><polygon points="114,189 108.7731277106934,180.47475477940495 119.22687228930658,180.47475477940495" fill="#68728a"/><rect x="86" y="194" width="56" height="34" rx="4" fill="#f8efd9" stroke="#d5962b" stroke-width="1.5"/><rect x="188" y="112" width="116" height="40" rx="4" fill="#edf0f6" stroke="#d8dce8" stroke-width="1.5"/><text x="246" y="138" font-family="'Malgun Gothic','Noto Sans KR',sans-serif" font-size="14" font-weight="400" fill="#68728a" text-anchor="middle">원본 4…7</text><line x1="246" y1="155" x2="246" y2="189" stroke="#68728a" stroke-width="2.5"/><polygon points="246,189 240.77312771069342,180.47475477940495 251.22687228930658,180.47475477940495" fill="#68728a"/><line x1="172" y1="142" x2="231" y2="189" stroke="#d5962b" stroke-width="1.4" stroke-dasharray="5 4"/><rect x="218" y="194" width="56" height="34" rx="4" fill="#d5962b" stroke="#d5962b" stroke-width="1.5"/><rect x="320" y="112" width="116" height="40" rx="4" fill="#edf0f6" stroke="#d8dce8" stroke-width="1.5"/><text x="378" y="138" font-family="'Malgun Gothic','Noto Sans KR',sans-serif" font-size="14" font-weight="400" fill="#68728a" text-anchor="middle">원본 8…11</text><line x1="378" y1="155" x2="378" y2="189" stroke="#68728a" stroke-width="2.5"/><polygon points="378,189 372.7731277106934,180.47475477940495 383.2268722893066,180.47475477940495" fill="#68728a"/><line x1="304" y1="142" x2="363" y2="189" stroke="#d5962b" stroke-width="1.4" stroke-dasharray="5 4"/><rect x="350" y="194" width="56" height="34" rx="4" fill="#f8efd9" stroke="#d5962b" stroke-width="1.5"/><rect x="452" y="112" width="116" height="40" rx="4" fill="#edf0f6" stroke="#d8dce8" stroke-width="1.5"/><text x="510" y="138" font-family="'Malgun Gothic','Noto Sans KR',sans-serif" font-size="14" font-weight="400" fill="#68728a" text-anchor="middle">원본 12…15</text><line x1="510" y1="155" x2="510" y2="189" stroke="#68728a" stroke-width="2.5"/><polygon points="510,189 504.7731277106934,180.47475477940495 515.2268722893066,180.47475477940495" fill="#68728a"/><line x1="436" y1="142" x2="495" y2="189" stroke="#d5962b" stroke-width="1.4" stroke-dasharray="5 4"/><rect x="482" y="194" width="56" height="34" rx="4" fill="#f8efd9" stroke="#d5962b" stroke-width="1.5"/><rect x="584" y="112" width="116" height="40" rx="4" fill="#edf0f6" stroke="#d8dce8" stroke-width="1.5"/><text x="642" y="138" font-family="'Malgun Gothic','Noto Sans KR',sans-serif" font-size="14" font-weight="400" fill="#68728a" text-anchor="middle">원본 16…19</text><line x1="642" y1="155" x2="642" y2="189" stroke="#68728a" stroke-width="2.5"/><polygon points="642,189 636.7731277106934,180.47475477940495 647.2268722893066,180.47475477940495" fill="#68728a"/><line x1="568" y1="142" x2="627" y2="189" stroke="#d5962b" stroke-width="1.4" stroke-dasharray="5 4"/><rect x="614" y="194" width="56" height="34" rx="4" fill="#d5962b" stroke="#d5962b" stroke-width="1.5"/><rect x="716" y="112" width="116" height="40" rx="4" fill="#edf0f6" stroke="#d8dce8" stroke-width="1.5"/><text x="774" y="138" font-family="'Malgun Gothic','Noto Sans KR',sans-serif" font-size="14" font-weight="400" fill="#68728a" text-anchor="middle">원본 20…23</text><line x1="774" y1="155" x2="774" y2="189" stroke="#68728a" stroke-width="2.5"/><polygon points="774,189 768.7731277106934,180.47475477940495 779.2268722893066,180.47475477940495" fill="#68728a"/><line x1="700" y1="142" x2="759" y2="189" stroke="#d5962b" stroke-width="1.4" stroke-dasharray="5 4"/><rect x="746" y="194" width="56" height="34" rx="4" fill="#f8efd9" stroke="#d5962b" stroke-width="1.5"/><text x="885" y="204" font-family="'Malgun Gothic','Noto Sans KR',sans-serif" font-size="19" font-weight="700" fill="#d5962b" text-anchor="start">S/4 entry를 점수화 → top-k</text><text x="885" y="236" font-family="'Malgun Gothic','Noto Sans KR',sans-serif" font-size="17" font-weight="400" fill="#68728a" text-anchor="start">선택·gather 비용 있음</text><text x="46" y="320" font-family="'Malgun Gothic','Noto Sans KR',sans-serif" font-size="23" font-weight="700" fill="#6b50cc" text-anchor="start">HCA</text><text x="150" y="320" font-family="'Malgun Gothic','Noto Sans KR',sans-serif" font-size="18" font-weight="400" fill="#68728a" text-anchor="start">128 token → 1 compressed KV</text><rect x="56" y="338" width="116" height="40" rx="4" fill="#edf0f6" stroke="#d8dce8" stroke-width="1.5"/><text x="114" y="364" font-family="'Malgun Gothic','Noto Sans KR',sans-serif" font-size="14" font-weight="400" fill="#68728a" text-anchor="middle">원본 0…127</text><line x1="114" y1="381" x2="114" y2="415" stroke="#68728a" stroke-width="2.5"/><polygon points="114,415 108.7731277106934,406.4747547794049 119.22687228930658,406.4747547794049" fill="#68728a"/><rect x="86" y="420" width="56" height="34" rx="4" fill="#e9e5fa" stroke="#6b50cc" stroke-width="1.5"/><rect x="188" y="338" width="116" height="40" rx="4" fill="#edf0f6" stroke="#d8dce8" stroke-width="1.5"/><text x="246" y="364" font-family="'Malgun Gothic','Noto Sans KR',sans-serif" font-size="14" font-weight="400" fill="#68728a" text-anchor="middle">원본 128…255</text><line x1="246" y1="381" x2="246" y2="415" stroke="#68728a" stroke-width="2.5"/><polygon points="246,415 240.77312771069342,406.4747547794049 251.22687228930658,406.4747547794049" fill="#68728a"/><rect x="218" y="420" width="56" height="34" rx="4" fill="#e9e5fa" stroke="#6b50cc" stroke-width="1.5"/><rect x="320" y="338" width="116" height="40" rx="4" fill="#edf0f6" stroke="#d8dce8" stroke-width="1.5"/><text x="378" y="364" font-family="'Malgun Gothic','Noto Sans KR',sans-serif" font-size="14" font-weight="400" fill="#68728a" text-anchor="middle">원본 256…383</text><line x1="378" y1="381" x2="378" y2="415" stroke="#68728a" stroke-width="2.5"/><polygon points="378,415 372.7731277106934,406.4747547794049 383.2268722893066,406.4747547794049" fill="#68728a"/><rect x="350" y="420" width="56" height="34" rx="4" fill="#e9e5fa" stroke="#6b50cc" stroke-width="1.5"/><rect x="452" y="338" width="116" height="40" rx="4" fill="#edf0f6" stroke="#d8dce8" stroke-width="1.5"/><text x="510" y="364" font-family="'Malgun Gothic','Noto Sans KR',sans-serif" font-size="14" font-weight="400" fill="#68728a" text-anchor="middle">원본 384…511</text><line x1="510" y1="381" x2="510" y2="415" stroke="#68728a" stroke-width="2.5"/><polygon points="510,415 504.7731277106934,406.4747547794049 515.2268722893066,406.4747547794049" fill="#68728a"/><rect x="482" y="420" width="56" height="34" rx="4" fill="#e9e5fa" stroke="#6b50cc" stroke-width="1.5"/><rect x="584" y="338" width="116" height="40" rx="4" fill="#edf0f6" stroke="#d8dce8" stroke-width="1.5"/><text x="642" y="364" font-family="'Malgun Gothic','Noto Sans KR',sans-serif" font-size="14" font-weight="400" fill="#68728a" text-anchor="middle">원본 512…639</text><line x1="642" y1="381" x2="642" y2="415" stroke="#68728a" stroke-width="2.5"/><polygon points="642,415 636.7731277106934,406.4747547794049 647.2268722893066,406.4747547794049" fill="#68728a"/><rect x="614" y="420" width="56" height="34" rx="4" fill="#e9e5fa" stroke="#6b50cc" stroke-width="1.5"/><rect x="716" y="338" width="116" height="40" rx="4" fill="#edf0f6" stroke="#d8dce8" stroke-width="1.5"/><text x="774" y="364" font-family="'Malgun Gothic','Noto Sans KR',sans-serif" font-size="14" font-weight="400" fill="#68728a" text-anchor="middle">원본 640…767</text><line x1="774" y1="381" x2="774" y2="415" stroke="#68728a" stroke-width="2.5"/><polygon points="774,415 768.7731277106934,406.4747547794049 779.2268722893066,406.4747547794049" fill="#68728a"/><rect x="746" y="420" width="56" height="34" rx="4" fill="#e9e5fa" stroke="#6b50cc" stroke-width="1.5"/><text x="885" y="430" font-family="'Malgun Gothic','Noto Sans KR',sans-serif" font-size="19" font-weight="700" fill="#6b50cc" text-anchor="start">S/128 entry를 전부 읽음</text><text x="885" y="462" font-family="'Malgun Gothic','Noto Sans KR',sans-serif" font-size="17" font-weight="400" fill="#68728a" text-anchor="start">압축 손실은 더 큼</text><rect x="46" y="553" width="1348" height="45" rx="7" fill="#f7f8fc" stroke="#d8dce8" stroke-width="1.5"/><text x="68" y="582" font-family="'Malgun Gothic','Noto Sans KR',sans-serif" font-size="17" font-weight="400" fill="#68728a" text-anchor="start">둘 다 최근 raw token 128개의 local window를 병행한다. 압축 entry가 raw token과 동일하다는 뜻은 아니다.</text><rect x="36" y="607" width="1368" height="48" rx="8" fill="#f7f8fc" stroke="#d8dce8" stroke-width="1"/><text x="56" y="638" font-family="'Malgun Gothic','Noto Sans KR',sans-serif" font-size="17" font-weight="400" fill="#68728a" text-anchor="start">CSA 점선 = 직전 4토큰도 반영. 학습된 압축이며 단순 평균이 아니다. 블록 개수는 축을 설명하는 예시다.</text></svg>