<svg xmlns="http://www.w3.org/2000/svg" viewBox="0 0 1560 470" width="1560" height="470"><defs><marker id="ah" viewBox="0 0 10 10" refX="8.5" refY="5" markerWidth="7" markerHeight="7" orient="auto-start-reverse"><path d="M0,0 L10,5 L0,10 z" fill="#5d6377"/></marker></defs><rect width="100%" height="100%" fill="#ffffff"/><text x="260" y="50" font-family="'Noto Sans KR','Malgun Gothic',sans-serif" font-size="24" text-anchor="middle" font-weight="700" fill="#6b4fc8">MHA · KV 헤드 8개</text><rect x="60" y="90" width="42" height="42" rx="6" fill="#eceafa" stroke="#6b4fc8" stroke-width="2"/><text x="81.0" y="117.3" font-family="Consolas,'Courier New',monospace" font-size="18" text-anchor="middle" font-weight="400" fill="#343a4d">q</text><rect x="112" y="90" width="42" height="42" rx="6" fill="#eceafa" stroke="#6b4fc8" stroke-width="2"/><text x="133.0" y="117.3" font-family="Consolas,'Courier New',monospace" font-size="18" text-anchor="middle" font-weight="400" fill="#343a4d">q</text><rect x="164" y="90" width="42" height="42" rx="6" fill="#eceafa" stroke="#6b4fc8" stroke-width="2"/><text x="185.0" y="117.3" font-family="Consolas,'Courier New',monospace" font-size="18" text-anchor="middle" font-weight="400" fill="#343a4d">q</text><rect x="216" y="90" width="42" height="42" rx="6" fill="#eceafa" stroke="#6b4fc8" stroke-width="2"/><text x="237.0" y="117.3" font-family="Consolas,'Courier New',monospace" font-size="18" text-anchor="middle" font-weight="400" fill="#343a4d">q</text><rect x="268" y="90" width="42" height="42" rx="6" fill="#eceafa" stroke="#6b4fc8" stroke-width="2"/><text x="289.0" y="117.3" font-family="Consolas,'Courier New',monospace" font-size="18" text-anchor="middle" font-weight="400" fill="#343a4d">q</text><rect x="320" y="90" width="42" height="42" rx="6" fill="#eceafa" stroke="#6b4fc8" stroke-width="2"/><text x="341.0" y="117.3" font-family="Consolas,'Courier New',monospace" font-size="18" text-anchor="middle" font-weight="400" fill="#343a4d">q</text><rect x="372" y="90" width="42" height="42" rx="6" fill="#eceafa" stroke="#6b4fc8" stroke-width="2"/><text x="393.0" y="117.3" font-family="Consolas,'Courier New',monospace" font-size="18" text-anchor="middle" font-weight="400" fill="#343a4d">q</text><rect x="424" y="90" width="42" height="42" rx="6" fill="#eceafa" stroke="#6b4fc8" stroke-width="2"/><text x="445.0" y="117.3" font-family="Consolas,'Courier New',monospace" font-size="18" text-anchor="middle" font-weight="400" fill="#343a4d">q</text><line x1="81" y1="134" x2="81.0" y2="278" stroke="#a3a7b8" stroke-width="1.8"/><rect x="60.0" y="280" width="42" height="42" rx="6" fill="#f8e6f1" stroke="#c2479c" stroke-width="2"/><text x="81.0" y="307.3" font-family="Consolas,'Courier New',monospace" font-size="18" text-anchor="middle" font-weight="400" fill="#343a4d">k</text><rect x="60.0" y="330" width="42" height="42" rx="6" fill="#e4f0e4" stroke="#4d9a56" stroke-width="2"/><text x="81.0" y="357.3" font-family="Consolas,'Courier New',monospace" font-size="18" text-anchor="middle" font-weight="400" fill="#343a4d">v</text><line x1="133" y1="134" x2="133.0" y2="278" stroke="#a3a7b8" stroke-width="1.8"/><rect x="112.0" y="280" width="42" height="42" rx="6" fill="#f8e6f1" stroke="#c2479c" stroke-width="2"/><text x="133.0" y="307.3" font-family="Consolas,'Courier New',monospace" font-size="18" text-anchor="middle" font-weight="400" fill="#343a4d">k</text><rect x="112.0" y="330" width="42" height="42" rx="6" fill="#e4f0e4" stroke="#4d9a56" stroke-width="2"/><text x="133.0" y="357.3" font-family="Consolas,'Courier New',monospace" font-size="18" text-anchor="middle" font-weight="400" fill="#343a4d">v</text><line x1="185" y1="134" x2="185.0" y2="278" stroke="#a3a7b8" stroke-width="1.8"/><rect x="164.0" y="280" width="42" height="42" rx="6" fill="#f8e6f1" stroke="#c2479c" stroke-width="2"/><text x="185.0" y="307.3" font-family="Consolas,'Courier New',monospace" font-size="18" text-anchor="middle" font-weight="400" fill="#343a4d">k</text><rect x="164.0" y="330" width="42" height="42" rx="6" fill="#e4f0e4" stroke="#4d9a56" stroke-width="2"/><text x="185.0" y="357.3" font-family="Consolas,'Courier New',monospace" font-size="18" text-anchor="middle" font-weight="400" fill="#343a4d">v</text><line x1="237" y1="134" x2="237.0" y2="278" stroke="#a3a7b8" stroke-width="1.8"/><rect x="216.0" y="280" width="42" height="42" rx="6" fill="#f8e6f1" stroke="#c2479c" stroke-width="2"/><text x="237.0" y="307.3" font-family="Consolas,'Courier New',monospace" font-size="18" text-anchor="middle" font-weight="400" fill="#343a4d">k</text><rect x="216.0" y="330" width="42" height="42" rx="6" fill="#e4f0e4" stroke="#4d9a56" stroke-width="2"/><text x="237.0" y="357.3" font-family="Consolas,'Courier New',monospace" font-size="18" text-anchor="middle" font-weight="400" fill="#343a4d">v</text><line x1="289" y1="134" x2="289.0" y2="278" stroke="#a3a7b8" stroke-width="1.8"/><rect x="268.0" y="280" width="42" height="42" rx="6" fill="#f8e6f1" stroke="#c2479c" stroke-width="2"/><text x="289.0" y="307.3" font-family="Consolas,'Courier New',monospace" font-size="18" text-anchor="middle" font-weight="400" fill="#343a4d">k</text><rect x="268.0" y="330" width="42" height="42" rx="6" fill="#e4f0e4" stroke="#4d9a56" stroke-width="2"/><text x="289.0" y="357.3" font-family="Consolas,'Courier New',monospace" font-size="18" text-anchor="middle" font-weight="400" fill="#343a4d">v</text><line x1="341" y1="134" x2="341.0" y2="278" stroke="#a3a7b8" stroke-width="1.8"/><rect x="320.0" y="280" width="42" height="42" rx="6" fill="#f8e6f1" stroke="#c2479c" stroke-width="2"/><text x="341.0" y="307.3" font-family="Consolas,'Courier New',monospace" font-size="18" text-anchor="middle" font-weight="400" fill="#343a4d">k</text><rect x="320.0" y="330" width="42" height="42" rx="6" fill="#e4f0e4" stroke="#4d9a56" stroke-width="2"/><text x="341.0" y="357.3" font-family="Consolas,'Courier New',monospace" font-size="18" text-anchor="middle" font-weight="400" fill="#343a4d">v</text><line x1="393" y1="134" x2="393.0" y2="278" stroke="#a3a7b8" stroke-width="1.8"/><rect x="372.0" y="280" width="42" height="42" rx="6" fill="#f8e6f1" stroke="#c2479c" stroke-width="2"/><text x="393.0" y="307.3" font-family="Consolas,'Courier New',monospace" font-size="18" text-anchor="middle" font-weight="400" fill="#343a4d">k</text><rect x="372.0" y="330" width="42" height="42" rx="6" fill="#e4f0e4" stroke="#4d9a56" stroke-width="2"/><text x="393.0" y="357.3" font-family="Consolas,'Courier New',monospace" font-size="18" text-anchor="middle" font-weight="400" fill="#343a4d">v</text><line x1="445" y1="134" x2="445.0" y2="278" stroke="#a3a7b8" stroke-width="1.8"/><rect x="424.0" y="280" width="42" height="42" rx="6" fill="#f8e6f1" stroke="#c2479c" stroke-width="2"/><text x="445.0" y="307.3" font-family="Consolas,'Courier New',monospace" font-size="18" text-anchor="middle" font-weight="400" fill="#343a4d">k</text><rect x="424.0" y="330" width="42" height="42" rx="6" fill="#e4f0e4" stroke="#4d9a56" stroke-width="2"/><text x="445.0" y="357.3" font-family="Consolas,'Courier New',monospace" font-size="18" text-anchor="middle" font-weight="400" fill="#343a4d">v</text><text x="260" y="410" font-family="Consolas,'Courier New',monospace" font-size="17" text-anchor="middle" font-weight="400" fill="#7b8196">캐시 8장  ·  ( S × 8 × d_h )</text><text x="780" y="50" font-family="'Noto Sans KR','Malgun Gothic',sans-serif" font-size="24" text-anchor="middle" font-weight="700" fill="#6b4fc8">GQA · KV 헤드 2개</text><rect x="580" y="90" width="42" height="42" rx="6" fill="#eceafa" stroke="#6b4fc8" stroke-width="2"/><text x="601.0" y="117.3" font-family="Consolas,'Courier New',monospace" font-size="18" text-anchor="middle" font-weight="400" fill="#343a4d">q</text><rect x="632" y="90" width="42" height="42" rx="6" fill="#eceafa" stroke="#6b4fc8" stroke-width="2"/><text x="653.0" y="117.3" font-family="Consolas,'Courier New',monospace" font-size="18" text-anchor="middle" font-weight="400" fill="#343a4d">q</text><rect x="684" y="90" width="42" height="42" rx="6" fill="#eceafa" stroke="#6b4fc8" stroke-width="2"/><text x="705.0" y="117.3" font-family="Consolas,'Courier New',monospace" font-size="18" text-anchor="middle" font-weight="400" fill="#343a4d">q</text><rect x="736" y="90" width="42" height="42" rx="6" fill="#eceafa" stroke="#6b4fc8" stroke-width="2"/><text x="757.0" y="117.3" font-family="Consolas,'Courier New',monospace" font-size="18" text-anchor="middle" font-weight="400" fill="#343a4d">q</text><rect x="788" y="90" width="42" height="42" rx="6" fill="#eceafa" stroke="#6b4fc8" stroke-width="2"/><text x="809.0" y="117.3" font-family="Consolas,'Courier New',monospace" font-size="18" text-anchor="middle" font-weight="400" fill="#343a4d">q</text><rect x="840" y="90" width="42" height="42" rx="6" fill="#eceafa" stroke="#6b4fc8" stroke-width="2"/><text x="861.0" y="117.3" font-family="Consolas,'Courier New',monospace" font-size="18" text-anchor="middle" font-weight="400" fill="#343a4d">q</text><rect x="892" y="90" width="42" height="42" rx="6" fill="#eceafa" stroke="#6b4fc8" stroke-width="2"/><text x="913.0" y="117.3" font-family="Consolas,'Courier New',monospace" font-size="18" text-anchor="middle" font-weight="400" fill="#343a4d">q</text><rect x="944" y="90" width="42" height="42" rx="6" fill="#eceafa" stroke="#6b4fc8" stroke-width="2"/><text x="965.0" y="117.3" font-family="Consolas,'Courier New',monospace" font-size="18" text-anchor="middle" font-weight="400" fill="#343a4d">q</text><line x1="601" y1="134" x2="679.0" y2="278" stroke="#a3a7b8" stroke-width="1.8"/><line x1="653" y1="134" x2="679.0" y2="278" stroke="#a3a7b8" stroke-width="1.8"/><line x1="705" y1="134" x2="679.0" y2="278" stroke="#a3a7b8" stroke-width="1.8"/><line x1="757" y1="134" x2="679.0" y2="278" stroke="#a3a7b8" stroke-width="1.8"/><rect x="658.0" y="280" width="42" height="42" rx="6" fill="#f8e6f1" stroke="#c2479c" stroke-width="2"/><text x="679.0" y="307.3" font-family="Consolas,'Courier New',monospace" font-size="18" text-anchor="middle" font-weight="400" fill="#343a4d">k</text><rect x="658.0" y="330" width="42" height="42" rx="6" fill="#e4f0e4" stroke="#4d9a56" stroke-width="2"/><text x="679.0" y="357.3" font-family="Consolas,'Courier New',monospace" font-size="18" text-anchor="middle" font-weight="400" fill="#343a4d">v</text><line x1="809" y1="134" x2="887.0" y2="278" stroke="#a3a7b8" stroke-width="1.8"/><line x1="861" y1="134" x2="887.0" y2="278" stroke="#a3a7b8" stroke-width="1.8"/><line x1="913" y1="134" x2="887.0" y2="278" stroke="#a3a7b8" stroke-width="1.8"/><line x1="965" y1="134" x2="887.0" y2="278" stroke="#a3a7b8" stroke-width="1.8"/><rect x="866.0" y="280" width="42" height="42" rx="6" fill="#f8e6f1" stroke="#c2479c" stroke-width="2"/><text x="887.0" y="307.3" font-family="Consolas,'Courier New',monospace" font-size="18" text-anchor="middle" font-weight="400" fill="#343a4d">k</text><rect x="866.0" y="330" width="42" height="42" rx="6" fill="#e4f0e4" stroke="#4d9a56" stroke-width="2"/><text x="887.0" y="357.3" font-family="Consolas,'Courier New',monospace" font-size="18" text-anchor="middle" font-weight="400" fill="#343a4d">v</text><text x="780" y="410" font-family="Consolas,'Courier New',monospace" font-size="17" text-anchor="middle" font-weight="400" fill="#7b8196">캐시 2장  ·  ( S × 2 × d_h )</text><text x="1300" y="50" font-family="'Noto Sans KR','Malgun Gothic',sans-serif" font-size="24" text-anchor="middle" font-weight="700" fill="#6b4fc8">MQA · KV 헤드 1개</text><rect x="1100" y="90" width="42" height="42" rx="6" fill="#eceafa" stroke="#6b4fc8" stroke-width="2"/><text x="1121.0" y="117.3" font-family="Consolas,'Courier New',monospace" font-size="18" text-anchor="middle" font-weight="400" fill="#343a4d">q</text><rect x="1152" y="90" width="42" height="42" rx="6" fill="#eceafa" stroke="#6b4fc8" stroke-width="2"/><text x="1173.0" y="117.3" font-family="Consolas,'Courier New',monospace" font-size="18" text-anchor="middle" font-weight="400" fill="#343a4d">q</text><rect x="1204" y="90" width="42" height="42" rx="6" fill="#eceafa" stroke="#6b4fc8" stroke-width="2"/><text x="1225.0" y="117.3" font-family="Consolas,'Courier New',monospace" font-size="18" text-anchor="middle" font-weight="400" fill="#343a4d">q</text><rect x="1256" y="90" width="42" height="42" rx="6" fill="#eceafa" stroke="#6b4fc8" stroke-width="2"/><text x="1277.0" y="117.3" font-family="Consolas,'Courier New',monospace" font-size="18" text-anchor="middle" font-weight="400" fill="#343a4d">q</text><rect x="1308" y="90" width="42" height="42" rx="6" fill="#eceafa" stroke="#6b4fc8" stroke-width="2"/><text x="1329.0" y="117.3" font-family="Consolas,'Courier New',monospace" font-size="18" text-anchor="middle" font-weight="400" fill="#343a4d">q</text><rect x="1360" y="90" width="42" height="42" rx="6" fill="#eceafa" stroke="#6b4fc8" stroke-width="2"/><text x="1381.0" y="117.3" font-family="Consolas,'Courier New',monospace" font-size="18" text-anchor="middle" font-weight="400" fill="#343a4d">q</text><rect x="1412" y="90" width="42" height="42" rx="6" fill="#eceafa" stroke="#6b4fc8" stroke-width="2"/><text x="1433.0" y="117.3" font-family="Consolas,'Courier New',monospace" font-size="18" text-anchor="middle" font-weight="400" fill="#343a4d">q</text><rect x="1464" y="90" width="42" height="42" rx="6" fill="#eceafa" stroke="#6b4fc8" stroke-width="2"/><text x="1485.0" y="117.3" font-family="Consolas,'Courier New',monospace" font-size="18" text-anchor="middle" font-weight="400" fill="#343a4d">q</text><line x1="1121" y1="134" x2="1303.0" y2="278" stroke="#a3a7b8" stroke-width="1.8"/><line x1="1173" y1="134" x2="1303.0" y2="278" stroke="#a3a7b8" stroke-width="1.8"/><line x1="1225" y1="134" x2="1303.0" y2="278" stroke="#a3a7b8" stroke-width="1.8"/><line x1="1277" y1="134" x2="1303.0" y2="278" stroke="#a3a7b8" stroke-width="1.8"/><line x1="1329" y1="134" x2="1303.0" y2="278" stroke="#a3a7b8" stroke-width="1.8"/><line x1="1381" y1="134" x2="1303.0" y2="278" stroke="#a3a7b8" stroke-width="1.8"/><line x1="1433" y1="134" x2="1303.0" y2="278" stroke="#a3a7b8" stroke-width="1.8"/><line x1="1485" y1="134" x2="1303.0" y2="278" stroke="#a3a7b8" stroke-width="1.8"/><rect x="1282.0" y="280" width="42" height="42" rx="6" fill="#f8e6f1" stroke="#c2479c" stroke-width="2"/><text x="1303.0" y="307.3" font-family="Consolas,'Courier New',monospace" font-size="18" text-anchor="middle" font-weight="400" fill="#343a4d">k</text><rect x="1282.0" y="330" width="42" height="42" rx="6" fill="#e4f0e4" stroke="#4d9a56" stroke-width="2"/><text x="1303.0" y="357.3" font-family="Consolas,'Courier New',monospace" font-size="18" text-anchor="middle" font-weight="400" fill="#343a4d">v</text><text x="1300" y="410" font-family="Consolas,'Courier New',monospace" font-size="17" text-anchor="middle" font-weight="400" fill="#7b8196">캐시 1장  ·  ( S × 1 × d_h )</text><text x="780" y="452" font-family="'Noto Sans KR','Malgun Gothic',sans-serif" font-size="17" text-anchor="middle" font-weight="400" fill="#343a4d">쿼리 헤드 8개 기준. 쿼리 헤드 수는 그대로 두고, 캐시에 남길 K · V만 줄인다.  (Llama 3 70B: 쿼리 64 · KV 8)</text></svg>