<svg xmlns="http://www.w3.org/2000/svg" viewBox="0 0 1560 420" width="1560" height="420"><defs><marker id="ah" viewBox="0 0 10 10" refX="8.5" refY="5" markerWidth="7" markerHeight="7" orient="auto-start-reverse"><path d="M0,0 L10,5 L0,10 z" fill="#5d6377"/></marker></defs><rect width="100%" height="100%" fill="#ffffff"/><text x="40" y="44" font-family="'Noto Sans KR','Malgun Gothic',sans-serif" font-size="24" text-anchor="start" font-weight="700" fill="#6b4fc8">지금 토큰이 캐시에서 읽는 위치 — 개수보다 조각 수</text><text x="40" y="118" font-family="'Noto Sans KR','Malgun Gothic',sans-serif" font-size="19" text-anchor="start" font-weight="600" fill="#343a4d">전부 읽기</text><rect x="400" y="90" width="44" height="40" rx="5" fill="#6b4fc8" stroke="none" stroke-width="2"/><rect x="449" y="90" width="44" height="40" rx="5" fill="#6b4fc8" stroke="none" stroke-width="2"/><rect x="498" y="90" width="44" height="40" rx="5" fill="#6b4fc8" stroke="none" stroke-width="2"/><rect x="547" y="90" width="44" height="40" rx="5" fill="#6b4fc8" stroke="none" stroke-width="2"/><rect x="596" y="90" width="44" height="40" rx="5" fill="#6b4fc8" stroke="none" stroke-width="2"/><rect x="645" y="90" width="44" height="40" rx="5" fill="#6b4fc8" stroke="none" stroke-width="2"/><rect x="694" y="90" width="44" height="40" rx="5" fill="#6b4fc8" stroke="none" stroke-width="2"/><rect x="743" y="90" width="44" height="40" rx="5" fill="#6b4fc8" stroke="none" stroke-width="2"/><rect x="792" y="90" width="44" height="40" rx="5" fill="#6b4fc8" stroke="none" stroke-width="2"/><rect x="841" y="90" width="44" height="40" rx="5" fill="#6b4fc8" stroke="none" stroke-width="2"/><rect x="890" y="90" width="44" height="40" rx="5" fill="#6b4fc8" stroke="none" stroke-width="2"/><rect x="939" y="90" width="44" height="40" rx="5" fill="#6b4fc8" stroke="none" stroke-width="2"/><rect x="988" y="90" width="44" height="40" rx="5" fill="#6b4fc8" stroke="none" stroke-width="2"/><rect x="1037" y="90" width="44" height="40" rx="5" fill="#6b4fc8" stroke="none" stroke-width="2"/><rect x="1086" y="90" width="44" height="40" rx="5" fill="#6b4fc8" stroke="none" stroke-width="2"/><rect x="1135" y="90" width="44" height="40" rx="5" fill="#6b4fc8" stroke="none" stroke-width="2"/><text x="1209" y="118" font-family="'Noto Sans KR','Malgun Gothic',sans-serif" font-size="19" text-anchor="start" font-weight="400" fill="#343a4d">연속 1구간</text><text x="40" y="188" font-family="'Noto Sans KR','Malgun Gothic',sans-serif" font-size="19" text-anchor="start" font-weight="600" fill="#343a4d">최근 W개 (SWA, W = 4)</text><rect x="400" y="160" width="44" height="40" rx="5" fill="#e6e8f1" stroke="none" stroke-width="2"/><rect x="449" y="160" width="44" height="40" rx="5" fill="#e6e8f1" stroke="none" stroke-width="2"/><rect x="498" y="160" width="44" height="40" rx="5" fill="#e6e8f1" stroke="none" stroke-width="2"/><rect x="547" y="160" width="44" height="40" rx="5" fill="#e6e8f1" stroke="none" stroke-width="2"/><rect x="596" y="160" width="44" height="40" rx="5" fill="#e6e8f1" stroke="none" stroke-width="2"/><rect x="645" y="160" width="44" height="40" rx="5" fill="#e6e8f1" stroke="none" stroke-width="2"/><rect x="694" y="160" width="44" height="40" rx="5" fill="#e6e8f1" stroke="none" stroke-width="2"/><rect x="743" y="160" width="44" height="40" rx="5" fill="#e6e8f1" stroke="none" stroke-width="2"/><rect x="792" y="160" width="44" height="40" rx="5" fill="#e6e8f1" stroke="none" stroke-width="2"/><rect x="841" y="160" width="44" height="40" rx="5" fill="#e6e8f1" stroke="none" stroke-width="2"/><rect x="890" y="160" width="44" height="40" rx="5" fill="#e6e8f1" stroke="none" stroke-width="2"/><rect x="939" y="160" width="44" height="40" rx="5" fill="#e6e8f1" stroke="none" stroke-width="2"/><rect x="988" y="160" width="44" height="40" rx="5" fill="#6b4fc8" stroke="none" stroke-width="2"/><rect x="1037" y="160" width="44" height="40" rx="5" fill="#6b4fc8" stroke="none" stroke-width="2"/><rect x="1086" y="160" width="44" height="40" rx="5" fill="#6b4fc8" stroke="none" stroke-width="2"/><rect x="1135" y="160" width="44" height="40" rx="5" fill="#6b4fc8" stroke="none" stroke-width="2"/><text x="1209" y="188" font-family="'Noto Sans KR','Malgun Gothic',sans-serif" font-size="19" text-anchor="start" font-weight="400" fill="#343a4d">연속 1구간</text><text x="40" y="258" font-family="'Noto Sans KR','Malgun Gothic',sans-serif" font-size="19" text-anchor="start" font-weight="600" fill="#343a4d">블록 단위로 고름 (블록 4 · 2개)</text><rect x="400" y="230" width="44" height="40" rx="5" fill="#6b4fc8" stroke="none" stroke-width="2"/><rect x="449" y="230" width="44" height="40" rx="5" fill="#6b4fc8" stroke="none" stroke-width="2"/><rect x="498" y="230" width="44" height="40" rx="5" fill="#6b4fc8" stroke="none" stroke-width="2"/><rect x="547" y="230" width="44" height="40" rx="5" fill="#6b4fc8" stroke="none" stroke-width="2"/><rect x="596" y="230" width="44" height="40" rx="5" fill="#e6e8f1" stroke="none" stroke-width="2"/><rect x="645" y="230" width="44" height="40" rx="5" fill="#e6e8f1" stroke="none" stroke-width="2"/><rect x="694" y="230" width="44" height="40" rx="5" fill="#e6e8f1" stroke="none" stroke-width="2"/><rect x="743" y="230" width="44" height="40" rx="5" fill="#e6e8f1" stroke="none" stroke-width="2"/><rect x="792" y="230" width="44" height="40" rx="5" fill="#6b4fc8" stroke="none" stroke-width="2"/><rect x="841" y="230" width="44" height="40" rx="5" fill="#6b4fc8" stroke="none" stroke-width="2"/><rect x="890" y="230" width="44" height="40" rx="5" fill="#6b4fc8" stroke="none" stroke-width="2"/><rect x="939" y="230" width="44" height="40" rx="5" fill="#6b4fc8" stroke="none" stroke-width="2"/><rect x="988" y="230" width="44" height="40" rx="5" fill="#e6e8f1" stroke="none" stroke-width="2"/><rect x="1037" y="230" width="44" height="40" rx="5" fill="#e6e8f1" stroke="none" stroke-width="2"/><rect x="1086" y="230" width="44" height="40" rx="5" fill="#e6e8f1" stroke="none" stroke-width="2"/><rect x="1135" y="230" width="44" height="40" rx="5" fill="#e6e8f1" stroke="none" stroke-width="2"/><text x="1209" y="258" font-family="'Noto Sans KR','Malgun Gothic',sans-serif" font-size="19" text-anchor="start" font-weight="700" fill="#343a4d">2구간</text><text x="40" y="328" font-family="'Noto Sans KR','Malgun Gothic',sans-serif" font-size="19" text-anchor="start" font-weight="600" fill="#343a4d">토큰 단위로 고름</text><rect x="400" y="300" width="44" height="40" rx="5" fill="#6b4fc8" stroke="none" stroke-width="2"/><rect x="449" y="300" width="44" height="40" rx="5" fill="#e6e8f1" stroke="none" stroke-width="2"/><rect x="498" y="300" width="44" height="40" rx="5" fill="#6b4fc8" stroke="none" stroke-width="2"/><rect x="547" y="300" width="44" height="40" rx="5" fill="#e6e8f1" stroke="none" stroke-width="2"/><rect x="596" y="300" width="44" height="40" rx="5" fill="#e6e8f1" stroke="none" stroke-width="2"/><rect x="645" y="300" width="44" height="40" rx="5" fill="#6b4fc8" stroke="none" stroke-width="2"/><rect x="694" y="300" width="44" height="40" rx="5" fill="#e6e8f1" stroke="none" stroke-width="2"/><rect x="743" y="300" width="44" height="40" rx="5" fill="#e6e8f1" stroke="none" stroke-width="2"/><rect x="792" y="300" width="44" height="40" rx="5" fill="#e6e8f1" stroke="none" stroke-width="2"/><rect x="841" y="300" width="44" height="40" rx="5" fill="#6b4fc8" stroke="none" stroke-width="2"/><rect x="890" y="300" width="44" height="40" rx="5" fill="#e6e8f1" stroke="none" stroke-width="2"/><rect x="939" y="300" width="44" height="40" rx="5" fill="#6b4fc8" stroke="none" stroke-width="2"/><rect x="988" y="300" width="44" height="40" rx="5" fill="#e6e8f1" stroke="none" stroke-width="2"/><rect x="1037" y="300" width="44" height="40" rx="5" fill="#e6e8f1" stroke="none" stroke-width="2"/><rect x="1086" y="300" width="44" height="40" rx="5" fill="#e6e8f1" stroke="none" stroke-width="2"/><rect x="1135" y="300" width="44" height="40" rx="5" fill="#6b4fc8" stroke="none" stroke-width="2"/><text x="1209" y="328" font-family="'Noto Sans KR','Malgun Gothic',sans-serif" font-size="19" text-anchor="start" font-weight="700" fill="#c2479c">6구간</text><text x="400" y="388" font-family="Consolas,'Courier New',monospace" font-size="15" text-anchor="middle" font-weight="400" fill="#7b8196">0</text><text x="1157" y="388" font-family="Consolas,'Courier New',monospace" font-size="15" text-anchor="middle" font-weight="400" fill="#7b8196">15 (지금)</text><text x="40" y="388" font-family="'Noto Sans KR','Malgun Gothic',sans-serif" font-size="16" text-anchor="start" font-weight="400" fill="#7b8196">메모리는 이어진 구간을 한 번에 읽을 때 가장 빠르다.</text></svg>