<svg xmlns="http://www.w3.org/2000/svg" viewBox="0 0 1560 520" width="1560" height="520"><defs><marker id="ah" viewBox="0 0 10 10" refX="8.5" refY="5" markerWidth="7" markerHeight="7" orient="auto-start-reverse"><path d="M0,0 L10,5 L0,10 z" fill="#5d6377"/></marker></defs><rect width="100%" height="100%" fill="#ffffff"/><text x="382" y="50" font-family="'Noto Sans KR','Malgun Gothic',sans-serif" font-size="24" text-anchor="middle" font-weight="700" fill="#6b4fc8">MHA · KV 헤드 8개</text><rect x="150" y="90" width="46" height="46" rx="6" fill="#eceafa" stroke="#6b4fc8" stroke-width="2"/><text x="173.0" y="119.65" font-family="Consolas,'Courier New',monospace" font-size="19" text-anchor="middle" font-weight="400" fill="#343a4d">q</text><rect x="210" y="90" width="46" height="46" rx="6" fill="#eceafa" stroke="#6b4fc8" stroke-width="2"/><text x="233.0" y="119.65" font-family="Consolas,'Courier New',monospace" font-size="19" text-anchor="middle" font-weight="400" fill="#343a4d">q</text><rect x="270" y="90" width="46" height="46" rx="6" fill="#eceafa" stroke="#6b4fc8" stroke-width="2"/><text x="293.0" y="119.65" font-family="Consolas,'Courier New',monospace" font-size="19" text-anchor="middle" font-weight="400" fill="#343a4d">q</text><rect x="330" y="90" width="46" height="46" rx="6" fill="#eceafa" stroke="#6b4fc8" stroke-width="2"/><text x="353.0" y="119.65" font-family="Consolas,'Courier New',monospace" font-size="19" text-anchor="middle" font-weight="400" fill="#343a4d">q</text><rect x="390" y="90" width="46" height="46" rx="6" fill="#eceafa" stroke="#6b4fc8" stroke-width="2"/><text x="413.0" y="119.65" font-family="Consolas,'Courier New',monospace" font-size="19" text-anchor="middle" font-weight="400" fill="#343a4d">q</text><rect x="450" y="90" width="46" height="46" rx="6" fill="#eceafa" stroke="#6b4fc8" stroke-width="2"/><text x="473.0" y="119.65" font-family="Consolas,'Courier New',monospace" font-size="19" text-anchor="middle" font-weight="400" fill="#343a4d">q</text><rect x="510" y="90" width="46" height="46" rx="6" fill="#eceafa" stroke="#6b4fc8" stroke-width="2"/><text x="533.0" y="119.65" font-family="Consolas,'Courier New',monospace" font-size="19" text-anchor="middle" font-weight="400" fill="#343a4d">q</text><rect x="570" y="90" width="46" height="46" rx="6" fill="#eceafa" stroke="#6b4fc8" stroke-width="2"/><text x="593.0" y="119.65" font-family="Consolas,'Courier New',monospace" font-size="19" text-anchor="middle" font-weight="400" fill="#343a4d">q</text><line x1="173" y1="138" x2="173.0" y2="288" stroke="#a3a7b8" stroke-width="1.8"/><rect x="150.0" y="290" width="46" height="46" rx="6" fill="#f8e6f1" stroke="#c2479c" stroke-width="2"/><text x="173.0" y="319.65" font-family="Consolas,'Courier New',monospace" font-size="19" text-anchor="middle" font-weight="400" fill="#343a4d">k</text><rect x="150.0" y="344" width="46" height="46" rx="6" fill="#e4f0e4" stroke="#4d9a56" stroke-width="2"/><text x="173.0" y="373.65" font-family="Consolas,'Courier New',monospace" font-size="19" text-anchor="middle" font-weight="400" fill="#343a4d">v</text><line x1="233" y1="138" x2="233.0" y2="288" stroke="#a3a7b8" stroke-width="1.8"/><rect x="210.0" y="290" width="46" height="46" rx="6" fill="#f8e6f1" stroke="#c2479c" stroke-width="2"/><text x="233.0" y="319.65" font-family="Consolas,'Courier New',monospace" font-size="19" text-anchor="middle" font-weight="400" fill="#343a4d">k</text><rect x="210.0" y="344" width="46" height="46" rx="6" fill="#e4f0e4" stroke="#4d9a56" stroke-width="2"/><text x="233.0" y="373.65" font-family="Consolas,'Courier New',monospace" font-size="19" text-anchor="middle" font-weight="400" fill="#343a4d">v</text><line x1="293" y1="138" x2="293.0" y2="288" stroke="#a3a7b8" stroke-width="1.8"/><rect x="270.0" y="290" width="46" height="46" rx="6" fill="#f8e6f1" stroke="#c2479c" stroke-width="2"/><text x="293.0" y="319.65" font-family="Consolas,'Courier New',monospace" font-size="19" text-anchor="middle" font-weight="400" fill="#343a4d">k</text><rect x="270.0" y="344" width="46" height="46" rx="6" fill="#e4f0e4" stroke="#4d9a56" stroke-width="2"/><text x="293.0" y="373.65" font-family="Consolas,'Courier New',monospace" font-size="19" text-anchor="middle" font-weight="400" fill="#343a4d">v</text><line x1="353" y1="138" x2="353.0" y2="288" stroke="#a3a7b8" stroke-width="1.8"/><rect x="330.0" y="290" width="46" height="46" rx="6" fill="#f8e6f1" stroke="#c2479c" stroke-width="2"/><text x="353.0" y="319.65" font-family="Consolas,'Courier New',monospace" font-size="19" text-anchor="middle" font-weight="400" fill="#343a4d">k</text><rect x="330.0" y="344" width="46" height="46" rx="6" fill="#e4f0e4" stroke="#4d9a56" stroke-width="2"/><text x="353.0" y="373.65" font-family="Consolas,'Courier New',monospace" font-size="19" text-anchor="middle" font-weight="400" fill="#343a4d">v</text><line x1="413" y1="138" x2="413.0" y2="288" stroke="#a3a7b8" stroke-width="1.8"/><rect x="390.0" y="290" width="46" height="46" rx="6" fill="#f8e6f1" stroke="#c2479c" stroke-width="2"/><text x="413.0" y="319.65" font-family="Consolas,'Courier New',monospace" font-size="19" text-anchor="middle" font-weight="400" fill="#343a4d">k</text><rect x="390.0" y="344" width="46" height="46" rx="6" fill="#e4f0e4" stroke="#4d9a56" stroke-width="2"/><text x="413.0" y="373.65" font-family="Consolas,'Courier New',monospace" font-size="19" text-anchor="middle" font-weight="400" fill="#343a4d">v</text><line x1="473" y1="138" x2="473.0" y2="288" stroke="#a3a7b8" stroke-width="1.8"/><rect x="450.0" y="290" width="46" height="46" rx="6" fill="#f8e6f1" stroke="#c2479c" stroke-width="2"/><text x="473.0" y="319.65" font-family="Consolas,'Courier New',monospace" font-size="19" text-anchor="middle" font-weight="400" fill="#343a4d">k</text><rect x="450.0" y="344" width="46" height="46" rx="6" fill="#e4f0e4" stroke="#4d9a56" stroke-width="2"/><text x="473.0" y="373.65" font-family="Consolas,'Courier New',monospace" font-size="19" text-anchor="middle" font-weight="400" fill="#343a4d">v</text><line x1="533" y1="138" x2="533.0" y2="288" stroke="#a3a7b8" stroke-width="1.8"/><rect x="510.0" y="290" width="46" height="46" rx="6" fill="#f8e6f1" stroke="#c2479c" stroke-width="2"/><text x="533.0" y="319.65" font-family="Consolas,'Courier New',monospace" font-size="19" text-anchor="middle" font-weight="400" fill="#343a4d">k</text><rect x="510.0" y="344" width="46" height="46" rx="6" fill="#e4f0e4" stroke="#4d9a56" stroke-width="2"/><text x="533.0" y="373.65" font-family="Consolas,'Courier New',monospace" font-size="19" text-anchor="middle" font-weight="400" fill="#343a4d">v</text><line x1="593" y1="138" x2="593.0" y2="288" stroke="#a3a7b8" stroke-width="1.8"/><rect x="570.0" y="290" width="46" height="46" rx="6" fill="#f8e6f1" stroke="#c2479c" stroke-width="2"/><text x="593.0" y="319.65" font-family="Consolas,'Courier New',monospace" font-size="19" text-anchor="middle" font-weight="400" fill="#343a4d">k</text><rect x="570.0" y="344" width="46" height="46" rx="6" fill="#e4f0e4" stroke="#4d9a56" stroke-width="2"/><text x="593.0" y="373.65" font-family="Consolas,'Courier New',monospace" font-size="19" text-anchor="middle" font-weight="400" fill="#343a4d">v</text><text x="382" y="432" font-family="'Noto Sans KR','Malgun Gothic',sans-serif" font-size="18" text-anchor="middle" font-weight="600" fill="#343a4d">쿼리 헤드마다 자기 K, V를 읽는다</text><text x="382" y="462" font-family="Consolas,'Courier New',monospace" font-size="16" text-anchor="middle" font-weight="400" fill="#7b8196">캐시  ( S × 8 × d_h ) × 2</text><text x="1162" y="50" font-family="'Noto Sans KR','Malgun Gothic',sans-serif" font-size="24" text-anchor="middle" font-weight="700" fill="#6b4fc8">MQA · KV 헤드 1개</text><rect x="930" y="90" width="46" height="46" rx="6" fill="#eceafa" stroke="#6b4fc8" stroke-width="2"/><text x="953.0" y="119.65" font-family="Consolas,'Courier New',monospace" font-size="19" text-anchor="middle" font-weight="400" fill="#343a4d">q</text><rect x="990" y="90" width="46" height="46" rx="6" fill="#eceafa" stroke="#6b4fc8" stroke-width="2"/><text x="1013.0" y="119.65" font-family="Consolas,'Courier New',monospace" font-size="19" text-anchor="middle" font-weight="400" fill="#343a4d">q</text><rect x="1050" y="90" width="46" height="46" rx="6" fill="#eceafa" stroke="#6b4fc8" stroke-width="2"/><text x="1073.0" y="119.65" font-family="Consolas,'Courier New',monospace" font-size="19" text-anchor="middle" font-weight="400" fill="#343a4d">q</text><rect x="1110" y="90" width="46" height="46" rx="6" fill="#eceafa" stroke="#6b4fc8" stroke-width="2"/><text x="1133.0" y="119.65" font-family="Consolas,'Courier New',monospace" font-size="19" text-anchor="middle" font-weight="400" fill="#343a4d">q</text><rect x="1170" y="90" width="46" height="46" rx="6" fill="#eceafa" stroke="#6b4fc8" stroke-width="2"/><text x="1193.0" y="119.65" font-family="Consolas,'Courier New',monospace" font-size="19" text-anchor="middle" font-weight="400" fill="#343a4d">q</text><rect x="1230" y="90" width="46" height="46" rx="6" fill="#eceafa" stroke="#6b4fc8" stroke-width="2"/><text x="1253.0" y="119.65" font-family="Consolas,'Courier New',monospace" font-size="19" text-anchor="middle" font-weight="400" fill="#343a4d">q</text><rect x="1290" y="90" width="46" height="46" rx="6" fill="#eceafa" stroke="#6b4fc8" stroke-width="2"/><text x="1313.0" y="119.65" font-family="Consolas,'Courier New',monospace" font-size="19" text-anchor="middle" font-weight="400" fill="#343a4d">q</text><rect x="1350" y="90" width="46" height="46" rx="6" fill="#eceafa" stroke="#6b4fc8" stroke-width="2"/><text x="1373.0" y="119.65" font-family="Consolas,'Courier New',monospace" font-size="19" text-anchor="middle" font-weight="400" fill="#343a4d">q</text><line x1="953" y1="138" x2="1163.0" y2="288" stroke="#a3a7b8" stroke-width="1.8"/><line x1="1013" y1="138" x2="1163.0" y2="288" stroke="#a3a7b8" stroke-width="1.8"/><line x1="1073" y1="138" x2="1163.0" y2="288" stroke="#a3a7b8" stroke-width="1.8"/><line x1="1133" y1="138" x2="1163.0" y2="288" stroke="#a3a7b8" stroke-width="1.8"/><line x1="1193" y1="138" x2="1163.0" y2="288" stroke="#a3a7b8" stroke-width="1.8"/><line x1="1253" y1="138" x2="1163.0" y2="288" stroke="#a3a7b8" stroke-width="1.8"/><line x1="1313" y1="138" x2="1163.0" y2="288" stroke="#a3a7b8" stroke-width="1.8"/><line x1="1373" y1="138" x2="1163.0" y2="288" stroke="#a3a7b8" stroke-width="1.8"/><rect x="1140.0" y="290" width="46" height="46" rx="6" fill="#f8e6f1" stroke="#c2479c" stroke-width="2"/><text x="1163.0" y="319.65" font-family="Consolas,'Courier New',monospace" font-size="19" text-anchor="middle" font-weight="400" fill="#343a4d">k</text><rect x="1140.0" y="344" width="46" height="46" rx="6" fill="#e4f0e4" stroke="#4d9a56" stroke-width="2"/><text x="1163.0" y="373.65" font-family="Consolas,'Courier New',monospace" font-size="19" text-anchor="middle" font-weight="400" fill="#343a4d">v</text><text x="1162" y="432" font-family="'Noto Sans KR','Malgun Gothic',sans-serif" font-size="18" text-anchor="middle" font-weight="600" fill="#343a4d">모든 쿼리 헤드가 같은 K, V를 읽는다</text><text x="1162" y="462" font-family="Consolas,'Courier New',monospace" font-size="16" text-anchor="middle" font-weight="400" fill="#7b8196">캐시  ( S × 1 × d_h ) × 2</text><line x1="780" y1="70" x2="780" y2="470" stroke="#d3d6e2" stroke-width="2" stroke-dasharray="6 6"/><text x="780" y="504" font-family="'Noto Sans KR','Malgun Gothic',sans-serif" font-size="17" text-anchor="middle" font-weight="400" fill="#343a4d">쿼리 헤드 8개 기준.  점수 계산은 양쪽 모두 8번이다.  읽어 오는 K, V만 8장에서 1장으로 줄어든다.</text></svg>