<svg xmlns="http://www.w3.org/2000/svg" viewBox="0 0 1560 600" width="1560" height="600"><defs><marker id="ah" viewBox="0 0 10 10" refX="8.5" refY="5" markerWidth="7" markerHeight="7" orient="auto-start-reverse"><path d="M0,0 L10,5 L0,10 z" fill="#5d6377"/></marker></defs><rect width="100%" height="100%" fill="#ffffff"/><text x="40" y="44" font-family="'Noto Sans KR','Malgun Gothic',sans-serif" font-size="24" text-anchor="start" font-weight="700" fill="#6b4fc8">여러 토큰을 엔트리 하나로 — 평균이 아니라 학습된 가중합</text><rect x="240" y="92" width="326" height="62" rx="8" fill="none" stroke="#c9cddb" stroke-width="1.6" stroke-dasharray="5 5"/><rect x="568" y="92" width="326" height="62" rx="8" fill="none" stroke="#b0a3e6" stroke-width="2"/><text x="403" y="84" font-family="'Noto Sans KR','Malgun Gothic',sans-serif" font-size="15" text-anchor="middle" font-weight="400" fill="#7b8196">앞 블록 4개</text><text x="731" y="84" font-family="'Noto Sans KR','Malgun Gothic',sans-serif" font-size="15" text-anchor="middle" font-weight="700" fill="#6b4fc8">자기 블록 4개</text><text x="40" y="122" font-family="'Noto Sans KR','Malgun Gothic',sans-serif" font-size="21" text-anchor="start" font-weight="700" fill="#343a4d">① 값</text><text x="40" y="148" font-family="'Noto Sans KR','Malgun Gothic',sans-serif" font-size="15" text-anchor="start" font-weight="400" fill="#7b8196">토큰마다 512차원으로 투영</text><text x="40" y="244" font-family="'Noto Sans KR','Malgun Gothic',sans-serif" font-size="21" text-anchor="start" font-weight="700" fill="#343a4d">② 가중치</text><text x="40" y="270" font-family="'Noto Sans KR','Malgun Gothic',sans-serif" font-size="15" text-anchor="start" font-weight="400" fill="#7b8196">토큰마다 반영할 비율</text><text x="40" y="294" font-family="'Noto Sans KR','Malgun Gothic',sans-serif" font-size="15" text-anchor="start" font-weight="400" fill="#7b8196">8개의 합 = 1</text><text x="40" y="412" font-family="'Noto Sans KR','Malgun Gothic',sans-serif" font-size="21" text-anchor="start" font-weight="700" fill="#343a4d">③ 합</text><text x="40" y="438" font-family="'Noto Sans KR','Malgun Gothic',sans-serif" font-size="15" text-anchor="start" font-weight="400" fill="#7b8196">가중치를 곱해 더한다</text><rect x="250" y="106" width="60" height="34" rx="6" fill="#fdefd8" stroke="#d18a1c" stroke-width="1.8" stroke-dasharray="4 3"/><text x="280.0" y="129" font-family="Consolas,'Courier New',monospace" font-size="16" text-anchor="middle" font-weight="400" fill="#343a4d">C</text><rect x="265.0" y="306.0" width="30" height="12.0" rx="3" fill="#6b4fc8" stroke="none" stroke-width="2"/><text x="280.0" y="338" font-family="Consolas,'Courier New',monospace" font-size="14" text-anchor="middle" font-weight="400" fill="#343a4d">0.04</text><line x1="280.0" y1="346" x2="567" y2="384" stroke="#9a9fb3" stroke-width="1.3"/><rect x="332" y="106" width="60" height="34" rx="6" fill="#fdefd8" stroke="#d18a1c" stroke-width="1.8" stroke-dasharray="4 3"/><text x="362.0" y="129" font-family="Consolas,'Courier New',monospace" font-size="16" text-anchor="middle" font-weight="400" fill="#343a4d">C</text><rect x="347.0" y="300.0" width="30" height="18.0" rx="3" fill="#6b4fc8" stroke="none" stroke-width="2"/><text x="362.0" y="338" font-family="Consolas,'Courier New',monospace" font-size="14" text-anchor="middle" font-weight="400" fill="#343a4d">0.06</text><line x1="362.0" y1="346" x2="567" y2="384" stroke="#9a9fb3" stroke-width="1.3"/><rect x="414" y="106" width="60" height="34" rx="6" fill="#fdefd8" stroke="#d18a1c" stroke-width="1.8" stroke-dasharray="4 3"/><text x="444.0" y="129" font-family="Consolas,'Courier New',monospace" font-size="16" text-anchor="middle" font-weight="400" fill="#343a4d">C</text><rect x="429.0" y="303.0" width="30" height="15.0" rx="3" fill="#6b4fc8" stroke="none" stroke-width="2"/><text x="444.0" y="338" font-family="Consolas,'Courier New',monospace" font-size="14" text-anchor="middle" font-weight="400" fill="#343a4d">0.05</text><line x1="444.0" y1="346" x2="567" y2="384" stroke="#9a9fb3" stroke-width="1.3"/><rect x="496" y="106" width="60" height="34" rx="6" fill="#fdefd8" stroke="#d18a1c" stroke-width="1.8" stroke-dasharray="4 3"/><text x="526.0" y="129" font-family="Consolas,'Courier New',monospace" font-size="16" text-anchor="middle" font-weight="400" fill="#343a4d">C</text><rect x="511.0" y="276.0" width="30" height="42.00000000000001" rx="3" fill="#6b4fc8" stroke="none" stroke-width="2"/><text x="526.0" y="338" font-family="Consolas,'Courier New',monospace" font-size="14" text-anchor="middle" font-weight="400" fill="#343a4d">0.14</text><line x1="526.0" y1="346" x2="567" y2="384" stroke="#9a9fb3" stroke-width="1.3"/><rect x="578" y="106" width="60" height="34" rx="6" fill="#fdefd8" stroke="#d18a1c" stroke-width="1.8"/><text x="608.0" y="129" font-family="Consolas,'Courier New',monospace" font-size="16" text-anchor="middle" font-weight="400" fill="#343a4d">C</text><rect x="593.0" y="264.0" width="30" height="54.0" rx="3" fill="#6b4fc8" stroke="none" stroke-width="2"/><text x="608.0" y="338" font-family="Consolas,'Courier New',monospace" font-size="14" text-anchor="middle" font-weight="400" fill="#343a4d">0.18</text><line x1="608.0" y1="346" x2="567" y2="384" stroke="#9a9fb3" stroke-width="1.3"/><rect x="660" y="106" width="60" height="34" rx="6" fill="#fdefd8" stroke="#d18a1c" stroke-width="1.8"/><text x="690.0" y="129" font-family="Consolas,'Courier New',monospace" font-size="16" text-anchor="middle" font-weight="400" fill="#343a4d">C</text><rect x="675.0" y="294.0" width="30" height="24.0" rx="3" fill="#6b4fc8" stroke="none" stroke-width="2"/><text x="690.0" y="338" font-family="Consolas,'Courier New',monospace" font-size="14" text-anchor="middle" font-weight="400" fill="#343a4d">0.08</text><line x1="690.0" y1="346" x2="567" y2="384" stroke="#9a9fb3" stroke-width="1.3"/><rect x="742" y="106" width="60" height="34" rx="6" fill="#fdefd8" stroke="#d18a1c" stroke-width="1.8"/><text x="772.0" y="129" font-family="Consolas,'Courier New',monospace" font-size="16" text-anchor="middle" font-weight="400" fill="#343a4d">C</text><rect x="757.0" y="216.0" width="30" height="102.00000000000001" rx="3" fill="#6b4fc8" stroke="none" stroke-width="2"/><text x="772.0" y="338" font-family="Consolas,'Courier New',monospace" font-size="14" text-anchor="middle" font-weight="400" fill="#343a4d">0.34</text><line x1="772.0" y1="346" x2="567" y2="384" stroke="#9a9fb3" stroke-width="1.3"/><rect x="824" y="106" width="60" height="34" rx="6" fill="#fdefd8" stroke="#d18a1c" stroke-width="1.8"/><text x="854.0" y="129" font-family="Consolas,'Courier New',monospace" font-size="16" text-anchor="middle" font-weight="400" fill="#343a4d">C</text><rect x="839.0" y="285.0" width="30" height="33.0" rx="3" fill="#6b4fc8" stroke="none" stroke-width="2"/><text x="854.0" y="338" font-family="Consolas,'Courier New',monospace" font-size="14" text-anchor="middle" font-weight="400" fill="#343a4d">0.11</text><line x1="854.0" y1="346" x2="567" y2="384" stroke="#9a9fb3" stroke-width="1.3"/><line x1="240" y1="318" x2="894" y2="318" stroke="#aeb3c4" stroke-width="1.6"/><line x1="240" y1="280.5" x2="894" y2="280.5" stroke="#c2479c" stroke-width="1.8" stroke-dasharray="7 5"/><text x="904" y="276.5" font-family="'Noto Sans KR','Malgun Gothic',sans-serif" font-size="14" text-anchor="start" font-weight="700" fill="#c2479c">평균이면</text><text x="904" y="296.5" font-family="'Noto Sans KR','Malgun Gothic',sans-serif" font-size="14" text-anchor="start" font-weight="700" fill="#c2479c">전부 1/8</text><rect x="482" y="388" width="170" height="46" rx="7" fill="#e0a030" stroke="#d18a1c" stroke-width="2"/><text x="567" y="418" font-family="'Noto Sans KR','Malgun Gothic',sans-serif" font-size="18" text-anchor="middle" font-weight="700" fill="#ffffff">엔트리 하나</text><text x="667" y="418" font-family="'Noto Sans KR','Malgun Gothic',sans-serif" font-size="15" text-anchor="start" font-weight="400" fill="#7b8196">512차원 · K이자 V</text><rect x="40" y="478" width="930" height="90" rx="10" fill="#f6f5fd" stroke="#d9d2f3" stroke-width="1.5"/><text x="64" y="514" font-family="'Noto Sans KR','Malgun Gothic',sans-serif" font-size="18" text-anchor="start" font-weight="700" fill="#343a4d">비율이 입력에 따라, 차원마다 달라진다 — 그 비율을 내는 행렬을 학습한다</text><text x="64" y="546" font-family="Consolas,'Courier New',monospace" font-size="15" text-anchor="start" font-weight="400" fill="#7b8196">값 C = h · W_KV</text><text x="250" y="546" font-family="Consolas,'Courier New',monospace" font-size="15" text-anchor="start" font-weight="400" fill="#7b8196">가중치 = softmax( h · W_Z + B )</text><text x="590" y="546" font-family="Consolas,'Courier New',monospace" font-size="15" text-anchor="start" font-weight="400" fill="#7b8196">엔트리 = Σ 가중치 ⊙ 값</text><line x1="1000" y1="76" x2="1000" y2="572" stroke="#e3e5ee" stroke-width="2" stroke-dasharray="6 6"/><text x="1030" y="100" font-family="'Noto Sans KR','Malgun Gothic',sans-serif" font-size="22" text-anchor="start" font-weight="700" fill="#6b4fc8">겹쳐서 묶는다</text><text x="1178" y="100" font-family="'Noto Sans KR','Malgun Gothic',sans-serif" font-size="15" text-anchor="start" font-weight="400" fill="#7b8196">overlapped compression</text><circle cx="1049" cy="174" r="9" fill="#8f95ab"/><circle cx="1073" cy="174" r="9" fill="#8f95ab"/><circle cx="1097" cy="174" r="9" fill="#8f95ab"/><circle cx="1121" cy="174" r="9" fill="#8f95ab"/><rect x="1034" y="159" width="102" height="30" rx="8" fill="none" stroke="#c9cddb" stroke-width="1.5" stroke-dasharray="5 4"/><line x1="1049" y1="191" x2="1085" y2="262" stroke="#d3d6e2" stroke-width="1.3"/><line x1="1073" y1="191" x2="1085" y2="262" stroke="#d3d6e2" stroke-width="1.3"/><line x1="1097" y1="191" x2="1085" y2="262" stroke="#d3d6e2" stroke-width="1.3"/><line x1="1121" y1="191" x2="1085" y2="262" stroke="#d3d6e2" stroke-width="1.3"/><rect x="1045" y="266" width="80" height="34" rx="6" fill="#fdefd8" stroke="#d18a1c" stroke-width="2"/><circle cx="1219" cy="174" r="9" fill="#8f95ab"/><circle cx="1243" cy="174" r="9" fill="#8f95ab"/><circle cx="1267" cy="174" r="9" fill="#8f95ab"/><circle cx="1291" cy="174" r="9" fill="#8f95ab"/><rect x="1204" y="159" width="102" height="30" rx="8" fill="none" stroke="#b0a3e6" stroke-width="2"/><line x1="1219" y1="191" x2="1255" y2="262" stroke="#6b4fc8" stroke-width="2"/><line x1="1243" y1="191" x2="1255" y2="262" stroke="#6b4fc8" stroke-width="2"/><line x1="1267" y1="191" x2="1255" y2="262" stroke="#6b4fc8" stroke-width="2"/><line x1="1291" y1="191" x2="1255" y2="262" stroke="#6b4fc8" stroke-width="2"/><line x1="1049" y1="191" x2="1255" y2="262" stroke="#6b4fc8" stroke-width="1.6" stroke-dasharray="5 4"/><line x1="1073" y1="191" x2="1255" y2="262" stroke="#6b4fc8" stroke-width="1.6" stroke-dasharray="5 4"/><line x1="1097" y1="191" x2="1255" y2="262" stroke="#6b4fc8" stroke-width="1.6" stroke-dasharray="5 4"/><line x1="1121" y1="191" x2="1255" y2="262" stroke="#6b4fc8" stroke-width="1.6" stroke-dasharray="5 4"/><rect x="1215" y="266" width="80" height="34" rx="6" fill="#e0a030" stroke="#d18a1c" stroke-width="2"/><circle cx="1389" cy="174" r="9" fill="#c9cddb"/><circle cx="1413" cy="174" r="9" fill="#c9cddb"/><circle cx="1437" cy="174" r="9" fill="#c9cddb"/><circle cx="1461" cy="174" r="9" fill="#c9cddb"/><rect x="1374" y="159" width="102" height="30" rx="8" fill="none" stroke="#c9cddb" stroke-width="1.5" stroke-dasharray="5 4"/><line x1="1389" y1="191" x2="1425" y2="262" stroke="#d3d6e2" stroke-width="1.3"/><line x1="1413" y1="191" x2="1425" y2="262" stroke="#d3d6e2" stroke-width="1.3"/><line x1="1437" y1="191" x2="1425" y2="262" stroke="#d3d6e2" stroke-width="1.3"/><line x1="1461" y1="191" x2="1425" y2="262" stroke="#d3d6e2" stroke-width="1.3"/><line x1="1219" y1="191" x2="1425" y2="262" stroke="#d3d6e2" stroke-width="1.2" stroke-dasharray="5 4"/><line x1="1243" y1="191" x2="1425" y2="262" stroke="#d3d6e2" stroke-width="1.2" stroke-dasharray="5 4"/><line x1="1267" y1="191" x2="1425" y2="262" stroke="#d3d6e2" stroke-width="1.2" stroke-dasharray="5 4"/><line x1="1291" y1="191" x2="1425" y2="262" stroke="#d3d6e2" stroke-width="1.2" stroke-dasharray="5 4"/><rect x="1385" y="266" width="80" height="34" rx="6" fill="#fdefd8" stroke="#d18a1c" stroke-width="2"/><text x="1085" y="148" font-family="'Noto Sans KR','Malgun Gothic',sans-serif" font-size="15" text-anchor="middle" font-weight="400" fill="#7b8196">앞 블록</text><text x="1255" y="148" font-family="'Noto Sans KR','Malgun Gothic',sans-serif" font-size="15" text-anchor="middle" font-weight="700" fill="#6b4fc8">자기 블록</text><text x="1255" y="324" font-family="'Noto Sans KR','Malgun Gothic',sans-serif" font-size="15" text-anchor="middle" font-weight="700" fill="#343a4d">이 엔트리</text><text x="1030" y="372" font-family="'Noto Sans KR','Malgun Gothic',sans-serif" font-size="17" text-anchor="start" font-weight="600" fill="#343a4d">엔트리 하나  =  자기 블록 4개 + 앞 블록 4개</text><text x="1030" y="402" font-family="'Noto Sans KR','Malgun Gothic',sans-serif" font-size="17" text-anchor="start" font-weight="600" fill="#343a4d">엔트리는 4토큰마다 하나  →  길이는 S/4</text><line x1="1030" y1="440" x2="1520" y2="440" stroke="#e3e5ee" stroke-width="1.5"/><text x="1030" y="484" font-family="'Noto Sans KR','Malgun Gothic',sans-serif" font-size="22" text-anchor="start" font-weight="700" fill="#6b4fc8">HCA</text><text x="1030" y="518" font-family="'Noto Sans KR','Malgun Gothic',sans-serif" font-size="17" text-anchor="start" font-weight="600" fill="#343a4d">128개를 하나로  →  길이는 S/128</text><text x="1030" y="548" font-family="'Noto Sans KR','Malgun Gothic',sans-serif" font-size="17" text-anchor="start" font-weight="600" fill="#343a4d">겹치지 않는다</text></svg>